<svg width="425" height="242" viewBox="0 0 425 242" fill="none" xmlns="http://www.w3.org/2000/svg">
<path d="M35.8518 142.791H8.4137V5.84478H18.9667L35.8518 34.338V142.791ZM136.593 100.335C136.593 97.7376 136.376 94.9234 135.943 91.8928C135.564 88.8622 134.78 86.075 133.589 83.5314C132.453 80.9337 130.829 78.796 128.719 77.1186C126.662 75.3868 123.956 74.5209 120.601 74.5209C117.3 74.5209 114.621 75.3868 112.564 77.1186C110.508 78.8504 108.884 81.0151 107.694 83.6128C106.557 86.2105 105.773 89.0246 105.34 92.0552C104.961 95.0315 104.771 97.7916 104.771 100.335C104.771 102.067 104.852 103.907 105.015 105.855C105.177 107.749 105.475 109.644 105.908 111.538C106.341 113.432 106.936 115.272 107.694 117.058C108.451 118.789 109.426 120.332 110.616 121.685C111.806 123.038 113.214 124.12 114.837 124.932C116.461 125.69 118.382 126.069 120.601 126.069C123.631 126.069 126.175 125.176 128.231 123.389C130.288 121.55 131.939 119.331 133.183 116.733C134.428 114.081 135.294 111.267 135.781 108.291C136.322 105.314 136.593 102.662 136.593 100.335ZM179.13 95.6269C179.13 87.5633 177.587 80.0138 174.502 72.9786C171.472 65.889 167.305 59.7194 162.001 54.47C156.752 49.1666 150.582 44.9992 143.493 41.9686C136.457 38.8839 128.908 37.3416 120.844 37.3416C112.781 37.3416 105.204 38.8839 98.1146 41.9686C91.0794 44.9992 84.9097 49.1666 79.6063 54.47C74.3569 59.7194 70.1896 65.889 67.1049 72.9786C64.0743 80.0138 62.559 87.5633 62.559 95.6269C62.559 103.69 64.0743 111.267 67.1049 118.357C70.1896 125.392 74.3569 131.561 79.6063 136.865C84.9097 142.115 91.0794 146.255 98.1146 149.285C105.204 152.37 112.781 153.912 120.844 153.912C122.522 153.912 124.308 153.777 126.202 153.507C128.096 153.236 129.909 152.884 131.641 152.451C133.427 152.018 135.05 151.531 136.512 150.99C137.973 150.503 139.163 150.016 140.083 149.529L143.736 158.702C140.002 160.163 136.295 161.272 132.615 162.03C128.989 162.788 125.066 163.166 120.844 163.166C114.675 163.166 108.722 162.355 102.985 160.731C97.2487 159.162 91.8909 156.916 86.9124 153.994C81.9331 151.071 77.3875 147.553 73.2742 143.44C69.2156 139.381 65.725 134.862 62.8025 129.884C59.8803 124.905 57.6071 119.547 55.9837 113.811C54.4141 108.074 53.6296 102.121 53.6296 95.9518C53.6296 89.7821 54.4141 83.8293 55.9837 78.0926C57.6071 72.3562 59.8803 66.9984 62.8025 62.0195C65.725 57.0407 69.2156 52.5217 73.2742 48.4628C77.3875 44.3498 81.9331 40.8322 86.9124 37.91C91.8909 34.9874 97.2487 32.7417 102.985 31.1721C108.722 29.5486 114.675 28.7368 120.844 28.7368C127.014 28.7368 132.967 29.5486 138.703 31.1721C144.44 32.7417 149.798 34.9874 154.776 37.91C159.755 40.8322 164.274 44.3498 168.333 48.4628C172.446 52.5217 175.964 57.0407 178.886 62.0195C181.809 66.9984 184.054 72.3562 185.624 78.0926C187.247 83.8293 188.059 89.7821 188.059 95.9518C188.059 100.931 187.464 105.774 186.273 110.482C185.083 115.19 183.215 119.385 180.672 123.065C178.129 126.745 174.854 129.722 170.849 131.994C166.899 134.213 162.109 135.323 156.481 135.323C154.857 135.323 153.126 135.052 151.286 134.511C149.5 133.916 147.795 133.077 146.172 131.994C144.548 130.858 143.087 129.505 141.788 127.935C140.489 126.366 139.569 124.58 139.028 122.578C137.946 124.851 136.566 126.826 134.888 128.504C133.265 130.127 131.478 131.48 129.53 132.563C127.636 133.591 125.634 134.349 123.523 134.835C121.413 135.323 119.383 135.566 117.435 135.566C112.294 135.566 107.694 134.646 103.635 132.806C99.6299 130.966 96.2203 128.477 93.4065 125.338C90.592 122.145 88.4273 118.411 86.9124 114.135C85.4511 109.806 84.7203 105.206 84.7203 100.335C84.7203 95.4104 85.4511 90.8104 86.9124 86.535C88.4273 82.2596 90.592 78.5255 93.4065 75.3324C96.2203 72.1397 99.6299 69.6231 103.635 67.7833C107.694 65.9431 112.294 65.0231 117.435 65.0231C120.032 65.0231 122.522 65.4291 124.903 66.2406C127.284 66.9984 129.449 68.0808 131.397 69.4877C133.346 70.8949 135.05 72.6267 136.512 74.683C138.027 76.6857 139.217 78.9044 140.083 81.3397L148.932 66.6465H156.481V112.431C156.481 115.19 157.022 117.41 158.105 119.087C159.187 120.765 160.513 121.929 162.082 122.578C163.652 123.227 165.303 123.362 167.034 122.984C168.82 122.605 170.39 121.712 171.742 120.305C174.016 117.87 175.801 114.568 177.1 110.401C178.453 106.18 179.13 101.255 179.13 95.6269ZM234.006 26.3826C234.006 28.4391 233.6 30.3874 232.788 32.2273C232.03 34.0675 230.975 35.6639 229.622 37.0167C228.269 38.37 226.672 39.4523 224.833 40.2638C222.992 41.0217 221.044 41.4006 218.988 41.4006C216.931 41.4006 214.983 41.0217 213.143 40.2638C211.357 39.4523 209.788 38.37 208.435 37.0167C207.082 35.6639 205.999 34.0675 205.188 32.2273C204.43 30.3874 204.051 28.4391 204.051 26.3826C204.051 24.3262 204.43 22.405 205.188 20.619C205.999 18.779 207.082 17.1826 208.435 15.8296C209.788 14.4766 211.357 13.4213 213.143 12.6637C214.983 11.8519 216.931 11.446 218.988 11.446C221.044 11.446 222.992 11.8519 224.833 12.6637C226.672 13.4213 228.269 14.4766 229.622 15.8296C230.975 17.1826 232.03 18.779 232.788 20.619C233.6 22.405 234.006 24.3262 234.006 26.3826ZM232.788 142.791H205.269V49.1122H232.788V142.791ZM343.432 10.4719L327.928 36.1238C327.765 34.0675 327.386 31.7133 326.791 29.0615C326.196 26.3556 325.195 23.812 323.788 21.4308C322.435 19.0496 320.541 17.0472 318.105 15.4237C315.724 13.746 312.666 12.9072 308.932 12.9072C305.09 12.9072 302.005 13.6649 299.678 15.1802C297.351 16.6955 295.565 18.9684 294.32 21.9991C293.076 25.0297 292.237 28.7909 291.804 33.2827C291.371 37.7746 291.154 42.9969 291.154 48.9498H319.566V59.8278H291.154V142.791H263.635V59.8278H246.588V48.9498H263.635C263.635 40.3452 264.555 32.9581 266.395 26.7885C268.235 20.619 271.022 15.559 274.756 11.6084C278.491 7.60361 283.172 4.68123 288.8 2.84121C294.483 0.947085 301.112 0 308.689 0C313.235 0 317.294 0.324709 320.865 0.974135C324.491 1.56942 327.684 2.38121 330.444 3.40944C333.259 4.38357 335.721 5.49302 337.832 6.73772C339.942 7.98242 341.809 9.22716 343.432 10.4719ZM424.448 10.4719L408.942 36.1238C408.779 34.0675 408.401 31.7133 407.806 29.0615C407.21 26.3556 406.209 23.812 404.803 21.4308C403.448 19.0496 401.554 17.0472 399.119 15.4237C396.739 13.746 393.681 12.9072 389.947 12.9072C386.106 12.9072 383.02 13.6649 380.693 15.1802C378.365 16.6955 376.582 18.9684 375.335 21.9991C374.091 25.0297 373.253 28.7909 372.82 33.2827C372.387 37.7746 372.169 42.9969 372.169 48.9498H400.581V59.8278H372.169V142.791H344.651V59.8278H327.603V48.9498H344.651C344.651 40.3452 345.569 32.9581 347.411 26.7885C349.251 20.619 352.039 15.559 355.772 11.6084C359.506 7.60361 364.185 4.68123 369.814 2.84121C375.497 0.947085 382.127 0 389.705 0C394.249 0 398.308 0.324709 401.879 0.974135C405.506 1.56942 408.699 2.38121 411.46 3.40944C414.272 4.38357 416.735 5.49302 418.847 6.73772C420.957 7.98242 422.824 9.22716 424.448 10.4719Z" fill="white"/>
<path d="M19.2357 236.307H0V209.519H7.38544V232.903H19.2357V236.307ZM48.2378 223.49V223.843C48.2132 224.885 48.1014 225.964 47.9032 227.08C47.7169 228.196 47.4506 229.313 47.1032 230.429C46.7558 231.545 46.3405 232.649 45.8566 233.74C45.3731 234.831 44.8273 235.873 44.2197 236.865C43.6244 237.87 42.9794 238.806 42.285 239.675C41.5905 240.555 40.8587 241.33 40.0898 242L37.3179 240.4C37.7519 239.668 38.1426 238.868 38.49 238C38.8495 237.144 39.1719 236.245 39.4573 235.303C39.7424 234.36 39.9845 233.393 40.183 232.401C40.3935 231.408 40.5674 230.422 40.7035 229.443C40.84 228.463 40.9394 227.502 41.0014 226.559C41.0759 225.604 41.1129 224.699 41.1129 223.843C41.1129 223.173 41.1067 222.417 41.0942 221.574C41.0942 220.718 41.0447 219.85 40.9456 218.969C40.8587 218.089 40.7098 217.233 40.4992 216.402C40.2883 215.558 39.972 214.808 39.5502 214.151C39.1411 213.493 38.6077 212.967 37.9503 212.57C37.3054 212.173 36.4995 211.974 35.5321 211.974C34.6762 211.974 33.9385 212.123 33.3182 212.421C32.7107 212.706 32.1897 213.097 31.7554 213.593C31.3339 214.076 30.9928 214.641 30.7324 215.286C30.4843 215.931 30.2859 216.613 30.1371 217.332C30.0007 218.039 29.9077 218.758 29.858 219.49C29.8208 220.209 29.8022 220.892 29.8022 221.537V226.727H37.8201V229.796H29.8022V236.307H22.4168V222.69C22.4168 220.743 22.7268 218.932 23.3469 217.258C23.9671 215.583 24.8414 214.132 25.97 212.905C27.111 211.664 28.4752 210.697 30.0627 210.003C31.6626 209.296 33.4422 208.942 35.4018 208.942C36.7287 208.942 37.969 209.134 39.1224 209.519C40.2883 209.891 41.3484 210.412 42.3037 211.081C43.2586 211.739 44.1082 212.526 44.8522 213.444C45.6086 214.349 46.2348 215.342 46.7312 216.421C47.2396 217.499 47.6241 218.641 47.8845 219.844C48.145 221.046 48.2628 222.262 48.2378 223.49ZM64.0691 236.307H56.6837V212.942H49.3912V209.519H71.3616V212.942H64.0691V236.307ZM82.542 236.307H75.1567V209.519H82.542V236.307ZM96.0108 236.307H88.6254V209.519H107.861V212.942H96.0108V221.22H105.164V224.625H96.0108V236.307ZM119.116 236.307H111.731V209.519H130.966V212.942H119.116V221.22H128.269V224.625H119.116V236.307ZM150.964 216.327L148.881 236.307H144.323L148.881 209.519H155.634L161.903 229.964L168.247 209.519H175L178.795 236.307H171.279L169.065 216.848L163.838 236.307H157.085L150.964 216.327ZM211.276 222.876C211.276 225.034 210.904 226.981 210.16 228.717C209.416 230.441 208.386 231.904 207.071 233.108C205.757 234.311 204.201 235.235 202.402 235.88C200.604 236.524 198.657 236.847 196.561 236.847C194.465 236.847 192.518 236.524 190.719 235.88C188.921 235.235 187.365 234.311 186.05 233.108C184.735 231.904 183.706 230.441 182.962 228.717C182.218 226.981 181.846 225.034 181.846 222.876C181.846 220.681 182.212 218.721 182.943 216.997C183.688 215.261 184.711 213.798 186.013 212.607C187.327 211.404 188.884 210.486 190.682 209.854C192.48 209.209 194.44 208.886 196.561 208.886C198.682 208.886 200.641 209.209 202.439 209.854C204.238 210.486 205.788 211.404 207.09 212.607C208.405 213.798 209.428 215.261 210.16 216.997C210.904 218.721 211.276 220.681 211.276 222.876ZM203.76 222.876C203.76 222.057 203.723 221.22 203.649 220.365C203.574 219.509 203.438 218.678 203.239 217.871C203.041 217.065 202.768 216.309 202.421 215.602C202.086 214.895 201.652 214.281 201.119 213.76C200.585 213.227 199.94 212.811 199.184 212.514C198.44 212.204 197.565 212.049 196.561 212.049C195.544 212.049 194.657 212.204 193.901 212.514C193.144 212.811 192.499 213.221 191.966 213.742C191.432 214.263 190.998 214.876 190.664 215.583C190.329 216.29 190.062 217.047 189.864 217.853C189.678 218.647 189.548 219.478 189.473 220.346C189.399 221.202 189.362 222.045 189.362 222.876C189.362 223.694 189.399 224.532 189.473 225.387C189.548 226.243 189.684 227.074 189.882 227.88C190.081 228.674 190.347 229.424 190.682 230.131C191.03 230.838 191.47 231.458 192.003 231.991C192.536 232.512 193.175 232.928 193.919 233.238C194.676 233.548 195.556 233.703 196.561 233.703C197.54 233.703 198.396 233.548 199.128 233.238C199.86 232.915 200.492 232.487 201.025 231.954C201.559 231.408 201.999 230.782 202.346 230.075C202.706 229.356 202.985 228.599 203.184 227.806C203.394 227 203.543 226.175 203.63 225.332C203.717 224.488 203.76 223.669 203.76 222.876ZM223.256 236.307H215.871V209.519H223.256V221.22H233.042V209.519H240.427V236.307H233.042V224.625H223.256V236.307ZM271.996 223.49V223.843C271.972 224.885 271.86 225.964 271.662 227.08C271.476 228.196 271.209 229.313 270.862 230.429C270.515 231.545 270.099 232.649 269.616 233.74C269.132 234.831 268.586 235.873 267.978 236.865C267.383 237.87 266.738 238.806 266.044 239.675C265.349 240.555 264.617 241.33 263.848 242L261.076 240.4C261.51 239.668 261.901 238.868 262.248 238C262.608 237.144 262.93 236.245 263.216 235.303C263.501 234.36 263.743 233.393 263.941 232.401C264.152 231.408 264.326 230.422 264.462 229.443C264.599 228.463 264.698 227.502 264.76 226.559C264.834 225.604 264.871 224.699 264.871 223.843C264.871 223.173 264.865 222.417 264.853 221.574C264.853 220.718 264.803 219.85 264.704 218.969C264.617 218.089 264.468 217.233 264.258 216.402C264.047 215.558 263.731 214.808 263.309 214.151C262.9 213.493 262.366 212.967 261.709 212.57C261.064 212.173 260.258 211.974 259.291 211.974C258.435 211.974 257.697 212.123 257.077 212.421C256.469 212.706 255.948 213.097 255.514 213.593C255.092 214.076 254.751 214.641 254.491 215.286C254.243 215.931 254.044 216.613 253.896 217.332C253.759 218.039 253.666 218.758 253.617 219.49C253.58 220.209 253.561 220.892 253.561 221.537V226.727H261.579V229.796H253.561V236.307H246.175V222.69C246.175 220.743 246.485 218.932 247.105 217.258C247.726 215.583 248.6 214.132 249.729 212.905C250.87 211.664 252.234 210.697 253.821 210.003C255.421 209.296 257.201 208.942 259.16 208.942C260.487 208.942 261.728 209.134 262.881 209.519C264.047 209.891 265.107 210.412 266.062 211.081C267.017 211.739 267.867 212.526 268.611 213.444C269.367 214.349 269.994 215.342 270.49 216.421C270.998 217.499 271.383 218.641 271.643 219.844C271.904 221.046 272.021 222.262 271.996 223.49ZM281.782 216.327L279.698 236.307H275.141L279.698 209.519H286.451L292.72 229.964L299.064 209.519H305.817L309.612 236.307H302.097L299.883 216.848L294.655 236.307H287.902L281.782 216.327ZM319.844 216.327L317.76 236.307H313.202L317.76 209.519H324.513L330.782 229.964L337.126 209.519H343.879L347.675 236.307H340.158L337.945 216.848L332.717 236.307H325.964L319.844 216.327ZM371.615 236.307H352.382V209.519H371.615V212.942H359.766V221.22H368.92V224.625H359.766V232.884H371.615V236.307ZM402.163 222.876C402.163 224.178 401.99 225.418 401.64 226.596C401.294 227.762 400.806 228.841 400.172 229.834C399.552 230.825 398.807 231.725 397.941 232.531C397.072 233.324 396.109 234.001 395.056 234.559C394.014 235.117 392.891 235.551 391.69 235.861C390.498 236.158 389.272 236.307 388.004 236.307H376.194V209.519H388.004C389.272 209.519 390.498 209.668 391.69 209.965C392.881 210.263 393.996 210.691 395.039 211.249C396.092 211.795 397.055 212.464 397.921 213.258C398.8 214.052 399.552 214.945 400.172 215.937C400.806 216.917 401.294 217.996 401.64 219.174C401.99 220.34 402.163 221.574 402.163 222.876ZM394.665 222.876C394.665 221.425 394.485 220.048 394.124 218.746C393.778 217.431 393.234 216.278 392.49 215.286C391.745 214.294 390.796 213.506 389.643 212.923C388.503 212.34 387.132 212.049 385.531 212.049H383.578V233.703H385.531C387.107 233.703 388.465 233.411 389.605 232.828C390.758 232.233 391.707 231.44 392.452 230.447C393.21 229.443 393.768 228.289 394.124 226.987C394.485 225.685 394.665 224.314 394.665 222.876Z" fill="white"/>
</svg>
