<svg width="124" height="72" viewBox="0 0 124 72" fill="none" xmlns="http://www.w3.org/2000/svg">
<path d="M11.2266 42H3.30469V2.46094H6.35156L11.2266 10.6875V42ZM40.3125 29.7422C40.3125 28.9922 40.25 28.1797 40.125 27.3047C40.0156 26.4297 39.7891 25.625 39.4453 24.8906C39.1172 24.1406 38.6484 23.5234 38.0391 23.0391C37.4453 22.5391 36.6641 22.2891 35.6953 22.2891C34.7422 22.2891 33.9688 22.5391 33.375 23.0391C32.7812 23.5391 32.3125 24.1641 31.9688 24.9141C31.6406 25.6641 31.4141 26.4766 31.2891 27.3516C31.1797 28.2109 31.125 29.0078 31.125 29.7422C31.125 30.2422 31.1484 30.7734 31.1953 31.3359C31.2422 31.8828 31.3281 32.4297 31.4531 32.9766C31.5781 33.5234 31.75 34.0547 31.9688 34.5703C32.1875 35.0703 32.4688 35.5156 32.8125 35.9062C33.1562 36.2969 33.5625 36.6094 34.0312 36.8438C34.5 37.0625 35.0547 37.1719 35.6953 37.1719C36.5703 37.1719 37.3047 36.9141 37.8984 36.3984C38.4922 35.8672 38.9688 35.2266 39.3281 34.4766C39.6875 33.7109 39.9375 32.8984 40.0781 32.0391C40.2344 31.1797 40.3125 30.4141 40.3125 29.7422ZM52.5938 28.3828C52.5938 26.0547 52.1484 23.875 51.2578 21.8438C50.3828 19.7969 49.1797 18.0156 47.6484 16.5C46.1328 14.9688 44.3516 13.7656 42.3047 12.8906C40.2734 12 38.0938 11.5547 35.7656 11.5547C33.4375 11.5547 31.25 12 29.2031 12.8906C27.1719 13.7656 25.3906 14.9688 23.8594 16.5C22.3438 18.0156 21.1406 19.7969 20.25 21.8438C19.375 23.875 18.9375 26.0547 18.9375 28.3828C18.9375 30.7109 19.375 32.8984 20.25 34.9453C21.1406 36.9766 22.3438 38.7578 23.8594 40.2891C25.3906 41.8047 27.1719 43 29.2031 43.875C31.25 44.7656 33.4375 45.2109 35.7656 45.2109C36.25 45.2109 36.7656 45.1719 37.3125 45.0938C37.8594 45.0156 38.3828 44.9141 38.8828 44.7891C39.3984 44.6641 39.8672 44.5234 40.2891 44.3672C40.7109 44.2266 41.0547 44.0859 41.3203 43.9453L42.375 46.5938C41.2969 47.0156 40.2266 47.3359 39.1641 47.5547C38.1172 47.7734 36.9844 47.8828 35.7656 47.8828C33.9844 47.8828 32.2656 47.6484 30.6094 47.1797C28.9531 46.7266 27.4062 46.0781 25.9688 45.2344C24.5312 44.3906 23.2188 43.375 22.0312 42.1875C20.8594 41.0156 19.8516 39.7109 19.0078 38.2734C18.1641 36.8359 17.5078 35.2891 17.0391 33.6328C16.5859 31.9766 16.3594 30.2578 16.3594 28.4766C16.3594 26.6953 16.5859 24.9766 17.0391 23.3203C17.5078 21.6641 18.1641 20.1172 19.0078 18.6797C19.8516 17.2422 20.8594 15.9375 22.0312 14.7656C23.2188 13.5781 24.5312 12.5625 25.9688 11.7188C27.4062 10.875 28.9531 10.2266 30.6094 9.77344C32.2656 9.30469 33.9844 9.07031 35.7656 9.07031C37.5469 9.07031 39.2656 9.30469 40.9219 9.77344C42.5781 10.2266 44.125 10.875 45.5625 11.7188C47 12.5625 48.3047 13.5781 49.4766 14.7656C50.6641 15.9375 51.6797 17.2422 52.5234 18.6797C53.3672 20.1172 54.0156 21.6641 54.4688 23.3203C54.9375 24.9766 55.1719 26.6953 55.1719 28.4766C55.1719 29.9141 55 31.3125 54.6562 32.6719C54.3125 34.0312 53.7734 35.2422 53.0391 36.3047C52.3047 37.3672 51.3594 38.2266 50.2031 38.8828C49.0625 39.5234 47.6797 39.8438 46.0547 39.8438C45.5859 39.8438 45.0859 39.7656 44.5547 39.6094C44.0391 39.4375 43.5469 39.1953 43.0781 38.8828C42.6094 38.5547 42.1875 38.1641 41.8125 37.7109C41.4375 37.2578 41.1719 36.7422 41.0156 36.1641C40.7031 36.8203 40.3047 37.3906 39.8203 37.875C39.3516 38.3438 38.8359 38.7344 38.2734 39.0469C37.7266 39.3438 37.1484 39.5625 36.5391 39.7031C35.9297 39.8438 35.3438 39.9141 34.7812 39.9141C33.2969 39.9141 31.9688 39.6484 30.7969 39.1172C29.6406 38.5859 28.6562 37.8672 27.8438 36.9609C27.0312 36.0391 26.4062 34.9609 25.9688 33.7266C25.5469 32.4766 25.3359 31.1484 25.3359 29.7422C25.3359 28.3203 25.5469 26.9922 25.9688 25.7578C26.4062 24.5234 27.0312 23.4453 27.8438 22.5234C28.6562 21.6016 29.6406 20.875 30.7969 20.3438C31.9688 19.8125 33.2969 19.5469 34.7812 19.5469C35.5312 19.5469 36.25 19.6641 36.9375 19.8984C37.625 20.1172 38.25 20.4297 38.8125 20.8359C39.375 21.2422 39.8672 21.7422 40.2891 22.3359C40.7266 22.9141 41.0703 23.5547 41.3203 24.2578L43.875 20.0156H46.0547V33.2344C46.0547 34.0312 46.2109 34.6719 46.5234 35.1562C46.8359 35.6406 47.2188 35.9766 47.6719 36.1641C48.125 36.3516 48.6016 36.3906 49.1016 36.2812C49.6172 36.1719 50.0703 35.9141 50.4609 35.5078C51.1172 34.8047 51.6328 33.8516 52.0078 32.6484C52.3984 31.4297 52.5938 30.0078 52.5938 28.3828ZM68.4375 8.39062C68.4375 8.98437 68.3203 9.54687 68.0859 10.0781C67.8672 10.6094 67.5625 11.0703 67.1719 11.4609C66.7812 11.8516 66.3203 12.1641 65.7891 12.3984C65.2578 12.6172 64.6953 12.7266 64.1016 12.7266C63.5078 12.7266 62.9453 12.6172 62.4141 12.3984C61.8984 12.1641 61.4453 11.8516 61.0547 11.4609C60.6641 11.0703 60.3516 10.6094 60.1172 10.0781C59.8984 9.54687 59.7891 8.98437 59.7891 8.39062C59.7891 7.79688 59.8984 7.24219 60.1172 6.72656C60.3516 6.19531 60.6641 5.73438 61.0547 5.34375C61.4453 4.95312 61.8984 4.64844 62.4141 4.42969C62.9453 4.19531 63.5078 4.07812 64.1016 4.07812C64.6953 4.07812 65.2578 4.19531 65.7891 4.42969C66.3203 4.64844 66.7812 4.95312 67.1719 5.34375C67.5625 5.73438 67.8672 6.19531 68.0859 6.72656C68.3203 7.24219 68.4375 7.79688 68.4375 8.39062ZM68.0859 42H60.1406V14.9531H68.0859V42ZM100.031 3.79688L95.5547 11.2031C95.5078 10.6094 95.3984 9.92969 95.2266 9.16406C95.0547 8.38281 94.7656 7.64844 94.3594 6.96094C93.9688 6.27344 93.4219 5.69531 92.7188 5.22656C92.0312 4.74219 91.1484 4.5 90.0703 4.5C88.9609 4.5 88.0703 4.71875 87.3984 5.15625C86.7266 5.59375 86.2109 6.25 85.8516 7.125C85.4922 8 85.25 9.08594 85.125 10.3828C85 11.6797 84.9375 13.1875 84.9375 14.9062H93.1406V18.0469H84.9375V42H76.9922V18.0469H72.0703V14.9062H76.9922C76.9922 12.4219 77.2578 10.2891 77.7891 8.50781C78.3203 6.72656 79.125 5.26563 80.2031 4.125C81.2812 2.96875 82.6328 2.125 84.2578 1.59375C85.8984 1.04688 87.8125 0.773438 90 0.773438C91.3125 0.773438 92.4844 0.867188 93.5156 1.05469C94.5625 1.22656 95.4844 1.46094 96.2812 1.75781C97.0938 2.03906 97.8047 2.35938 98.4141 2.71875C99.0234 3.07812 99.5625 3.4375 100.031 3.79688ZM123.422 3.79688L118.945 11.2031C118.898 10.6094 118.789 9.92969 118.617 9.16406C118.445 8.38281 118.156 7.64844 117.75 6.96094C117.359 6.27344 116.812 5.69531 116.109 5.22656C115.422 4.74219 114.539 4.5 113.461 4.5C112.352 4.5 111.461 4.71875 110.789 5.15625C110.117 5.59375 109.602 6.25 109.242 7.125C108.883 8 108.641 9.08594 108.516 10.3828C108.391 11.6797 108.328 13.1875 108.328 14.9062H116.531V18.0469H108.328V42H100.383V18.0469H95.4609V14.9062H100.383C100.383 12.4219 100.648 10.2891 101.18 8.50781C101.711 6.72656 102.516 5.26563 103.594 4.125C104.672 2.96875 106.023 2.125 107.648 1.59375C109.289 1.04688 111.203 0.773438 113.391 0.773438C114.703 0.773438 115.875 0.867188 116.906 1.05469C117.953 1.22656 118.875 1.46094 119.672 1.75781C120.484 2.03906 121.195 2.35938 121.805 2.71875C122.414 3.07812 122.953 3.4375 123.422 3.79688Z" fill="#F5F5F5"/>
<path d="M6.4292 69H0.875488V61.2656H3.00781V68.0171H6.4292V69ZM14.8027 65.2993V65.4014C14.7956 65.7021 14.7633 66.0137 14.7061 66.3359C14.6523 66.6582 14.5754 66.9805 14.4751 67.3027C14.3748 67.625 14.2549 67.9437 14.1152 68.2588C13.9756 68.5739 13.818 68.8747 13.6426 69.1611C13.4707 69.4512 13.2845 69.7215 13.084 69.9722C12.8835 70.2264 12.6722 70.4502 12.4502 70.6436L11.6499 70.1816C11.7752 69.9704 11.888 69.7394 11.9883 69.4888C12.0921 69.2417 12.1852 68.9821 12.2676 68.71C12.3499 68.4378 12.4198 68.1585 12.4771 67.8721C12.5379 67.5856 12.5881 67.3009 12.6274 67.0181C12.6668 66.7352 12.6955 66.4577 12.7134 66.1855C12.7349 65.9098 12.7456 65.6484 12.7456 65.4014C12.7456 65.208 12.7438 64.9896 12.7402 64.7461C12.7402 64.499 12.7259 64.2484 12.6973 63.9941C12.6722 63.7399 12.6292 63.4928 12.5684 63.2529C12.5075 63.0094 12.4162 62.7928 12.2944 62.603C12.1763 62.4132 12.0223 62.2611 11.8325 62.1465C11.6463 62.0319 11.4136 61.9746 11.1343 61.9746C10.8872 61.9746 10.6742 62.0176 10.4951 62.1035C10.3197 62.1859 10.1693 62.2987 10.0439 62.4419C9.9222 62.5815 9.82373 62.7445 9.74854 62.9307C9.67692 63.1169 9.61963 63.3138 9.57666 63.5215C9.53727 63.7256 9.51042 63.9333 9.49609 64.1445C9.48535 64.3522 9.47998 64.5492 9.47998 64.7354V66.2339H11.7949V67.1201H9.47998V69H7.34766V65.0684C7.34766 64.5062 7.43717 63.9834 7.61621 63.5C7.79525 63.0166 8.04769 62.5977 8.37354 62.2432C8.70296 61.8851 9.09684 61.6058 9.55518 61.4053C10.0171 61.2012 10.5309 61.0991 11.0967 61.0991C11.4798 61.0991 11.8379 61.1546 12.1709 61.2656C12.5075 61.373 12.8136 61.5234 13.0894 61.7168C13.3651 61.9066 13.6104 62.134 13.8252 62.3989C14.0436 62.6603 14.2244 62.9468 14.3677 63.2583C14.5145 63.5698 14.6255 63.8993 14.7007 64.2466C14.7759 64.5939 14.8099 64.9448 14.8027 65.2993ZM19.3735 69H17.2412V62.2539H15.1357V61.2656H21.479V62.2539H19.3735V69ZM24.707 69H22.5747V61.2656H24.707V69ZM28.5957 69H26.4634V61.2656H32.0171V62.2539H28.5957V64.644H31.2383V65.627H28.5957V69ZM35.2666 69H33.1343V61.2656H38.688V62.2539H35.2666V64.644H37.9092V65.627H35.2666V69ZM44.4619 63.2314L43.8604 69H42.5444L43.8604 61.2656H45.8101L47.6201 67.1685L49.4517 61.2656H51.4014L52.4971 69H50.3271L49.688 63.3818L48.1787 69H46.229L44.4619 63.2314ZM61.875 65.1221C61.875 65.7451 61.7676 66.3073 61.5527 66.8086C61.3379 67.3063 61.0407 67.7288 60.6611 68.0762C60.2816 68.4235 59.8322 68.6903 59.313 68.8765C58.7938 69.0627 58.2316 69.1558 57.6265 69.1558C57.0213 69.1558 56.4591 69.0627 55.9399 68.8765C55.4207 68.6903 54.9714 68.4235 54.5918 68.0762C54.2122 67.7288 53.915 67.3063 53.7002 66.8086C53.4854 66.3073 53.3779 65.7451 53.3779 65.1221C53.3779 64.4883 53.4836 63.9225 53.6948 63.4248C53.9097 62.9235 54.2051 62.501 54.5811 62.1572C54.9606 61.8099 55.41 61.5449 55.9292 61.3623C56.4484 61.1761 57.0142 61.083 57.6265 61.083C58.2388 61.083 58.8045 61.1761 59.3237 61.3623C59.8429 61.5449 60.2905 61.8099 60.6665 62.1572C61.0461 62.501 61.3415 62.9235 61.5527 63.4248C61.7676 63.9225 61.875 64.4883 61.875 65.1221ZM59.7051 65.1221C59.7051 64.8857 59.6943 64.644 59.6729 64.397C59.6514 64.1499 59.612 63.91 59.5547 63.6772C59.4974 63.4445 59.4186 63.2261 59.3184 63.022C59.2217 62.8179 59.0964 62.6406 58.9424 62.4902C58.7884 62.3363 58.6022 62.2163 58.3838 62.1304C58.1689 62.0409 57.9165 61.9961 57.6265 61.9961C57.3328 61.9961 57.0768 62.0409 56.8584 62.1304C56.64 62.2163 56.4538 62.3345 56.2998 62.4849C56.1458 62.6353 56.0205 62.8125 55.9238 63.0166C55.8271 63.2207 55.7502 63.4391 55.6929 63.6719C55.6392 63.901 55.6016 64.141 55.5801 64.3916C55.5586 64.6387 55.5479 64.8822 55.5479 65.1221C55.5479 65.3584 55.5586 65.6001 55.5801 65.8472C55.6016 66.0942 55.641 66.3341 55.6982 66.5669C55.7555 66.7961 55.8325 67.0127 55.9292 67.2168C56.0295 67.4209 56.1566 67.5999 56.3105 67.7539C56.4645 67.9043 56.6489 68.0243 56.8638 68.1138C57.0822 68.2033 57.3364 68.248 57.6265 68.248C57.9093 68.248 58.1564 68.2033 58.3677 68.1138C58.5789 68.0207 58.7616 67.8971 58.9155 67.7432C59.0695 67.5856 59.1966 67.4048 59.2969 67.2007C59.4007 66.993 59.4813 66.7746 59.5386 66.5454C59.5994 66.3127 59.6424 66.0745 59.6675 65.8311C59.6925 65.5876 59.7051 65.3512 59.7051 65.1221ZM65.334 69H63.2017V61.2656H65.334V64.644H68.1592V61.2656H70.2915V69H68.1592V65.627H65.334V69ZM79.4062 65.2993V65.4014C79.3991 65.7021 79.3669 66.0137 79.3096 66.3359C79.2559 66.6582 79.1789 66.9805 79.0786 67.3027C78.9784 67.625 78.8584 67.9437 78.7188 68.2588C78.5791 68.5739 78.4215 68.8747 78.2461 69.1611C78.0742 69.4512 77.888 69.7215 77.6875 69.9722C77.487 70.2264 77.2757 70.4502 77.0537 70.6436L76.2534 70.1816C76.3787 69.9704 76.4915 69.7394 76.5918 69.4888C76.6956 69.2417 76.7887 68.9821 76.8711 68.71C76.9535 68.4378 77.0233 68.1585 77.0806 67.8721C77.1414 67.5856 77.1916 67.3009 77.231 67.0181C77.2703 66.7352 77.299 66.4577 77.3169 66.1855C77.3384 65.9098 77.3491 65.6484 77.3491 65.4014C77.3491 65.208 77.3473 64.9896 77.3438 64.7461C77.3438 64.499 77.3294 64.2484 77.3008 63.9941C77.2757 63.7399 77.2327 63.4928 77.1719 63.2529C77.111 63.0094 77.0197 62.7928 76.8979 62.603C76.7798 62.4132 76.6258 62.2611 76.436 62.1465C76.2498 62.0319 76.0171 61.9746 75.7378 61.9746C75.4907 61.9746 75.2777 62.0176 75.0986 62.1035C74.9232 62.1859 74.7728 62.2987 74.6475 62.4419C74.5257 62.5815 74.4272 62.7445 74.3521 62.9307C74.2804 63.1169 74.2231 63.3138 74.1802 63.5215C74.1408 63.7256 74.1139 63.9333 74.0996 64.1445C74.0889 64.3522 74.0835 64.5492 74.0835 64.7354V66.2339H76.3984V67.1201H74.0835V69H71.9512V65.0684C71.9512 64.5062 72.0407 63.9834 72.2197 63.5C72.3988 63.0166 72.6512 62.5977 72.9771 62.2432C73.3065 61.8851 73.7004 61.6058 74.1587 61.4053C74.6206 61.2012 75.1344 61.0991 75.7002 61.0991C76.0833 61.0991 76.4414 61.1546 76.7744 61.2656C77.111 61.373 77.4172 61.5234 77.6929 61.7168C77.9686 61.9066 78.2139 62.134 78.4287 62.3989C78.6471 62.6603 78.828 62.9468 78.9712 63.2583C79.118 63.5698 79.229 63.8993 79.3042 64.2466C79.3794 64.5939 79.4134 64.9448 79.4062 65.2993ZM82.2314 63.2314L81.6299 69H80.314L81.6299 61.2656H83.5796L85.3896 67.1685L87.2212 61.2656H89.1709L90.2666 69H88.0967L87.4575 63.3818L85.9482 69H83.9985L82.2314 63.2314ZM93.2207 63.2314L92.6191 69H91.3032L92.6191 61.2656H94.5688L96.3789 67.1685L98.2104 61.2656H100.16L101.256 69H99.0859L98.4468 63.3818L96.9375 69H94.9878L93.2207 63.2314ZM108.168 69H102.615V61.2656H108.168V62.2539H104.747V64.644H107.39V65.627H104.747V68.0117H108.168V69ZM116.988 65.1221C116.988 65.498 116.938 65.8561 116.837 66.1963C116.737 66.5329 116.596 66.8444 116.413 67.1309C116.234 67.4173 116.019 67.6769 115.769 67.9097C115.518 68.1388 115.24 68.334 114.936 68.4951C114.635 68.6562 114.311 68.7816 113.964 68.8711C113.62 68.957 113.266 69 112.9 69H109.49V61.2656H112.9C113.266 61.2656 113.62 61.3086 113.964 61.3945C114.308 61.4805 114.63 61.604 114.931 61.7651C115.235 61.9227 115.513 62.116 115.763 62.3452C116.017 62.5744 116.234 62.8322 116.413 63.1187C116.596 63.4015 116.737 63.7131 116.837 64.0532C116.938 64.3898 116.988 64.7461 116.988 65.1221ZM114.823 65.1221C114.823 64.7031 114.771 64.3057 114.667 63.9297C114.567 63.5501 114.41 63.2171 114.195 62.9307C113.98 62.6442 113.706 62.4168 113.373 62.2485C113.044 62.0802 112.648 61.9961 112.186 61.9961H111.622V68.248H112.186C112.641 68.248 113.033 68.1639 113.362 67.9956C113.695 67.8237 113.969 67.5946 114.184 67.3081C114.403 67.0181 114.564 66.6851 114.667 66.3091C114.771 65.9331 114.823 65.5374 114.823 65.1221Z" fill="#F5F5F5"/>
</svg>
